[FRAME]
media_type=video
stream_index=0
key_frame=1
pkt_pts=0
pkt_pts_time=0.000000
pkt_dts=0
pkt_dts_time=0.000000
best_effort_timestamp=0
best_effort_timestamp_time=0.000000
pkt_duration=2048
pkt_duration_time=0.200000
pkt_pos=48
pkt_size=2024
width=512
height=512
pix_fmt=yuv420p
sample_aspect_ratio=1:1
pict_type=I
coded_picture_number=0
display_picture_number=0
interlaced_frame=0
top_field_first=0
repeat_pict=0
color_range=unknown
color_space=unknown
color_primaries=unknown
color_transfer=unknown
chroma_location=left
[/FRAME]
[FRAME]
media_type=video
stream_index=0
key_frame=0
pkt_pts=2048
pkt_pts_time=0.200000
pkt_dts=2048
pkt_dts_time=0.200000
best_effort_timestamp=2048
best_effort_timestamp_time=0.200000
pkt_duration=2048
pkt_duration_time=0.200000
pkt_pos=2072
pkt_size=1303
width=512
height=512
pix_fmt=yuv420p
sample_aspect_ratio=1:1
pict_type=P
coded_picture_number=1
display_picture_number=0
interlaced_frame=0
top_field_first=0
repeat_pict=0
color_range=unknown
color_space=unknown
color_primaries=unknown
color_transfer=unknown
chroma_location=left
[/FRAME]
[FRAME]
media_type=video
stream_index=0
key_frame=0
pkt_pts=4096
pkt_pts_time=0.400000
pkt_dts=4096
pkt_dts_time=0.400000
best_effort_timestamp=4096
best_effort_timestamp_time=0.400000
pkt_duration=2048
pkt_duration_time=0.200000
pkt_pos=3375
pkt_size=1303
width=512
height=512
pix_fmt=yuv420p
sample_aspect_ratio=1:1
pict_type=P
coded_picture_number=2
display_picture_number=0
interlaced_frame=0
top_field_first=0
repeat_pict=0
color_range=unknown
color_space=unknown
color_primaries=unknown
color_transfer=unknown
chroma_location=left
[/FRAME]
[FRAME]
media_type=video
stream_index=0
key_frame=0
pkt_pts=6144
pkt_pts_time=0.600000
pkt_dts=6144
pkt_dts_time=0.600000
best_effort_timestamp=6144
best_effort_timestamp_time=0.600000
pkt_duration=2048
pkt_duration_time=0.200000
pkt_pos=4678
pkt_size=851
width=512
height=512
pix_fmt=yuv420p
sample_aspect_ratio=1:1
pict_type=P
coded_picture_number=3
display_picture_number=0
interlaced_frame=0
top_field_first=0
repeat_pict=0
color_range=unknown
color_space=unknown
color_primaries=unknown
color_transfer=unknown
chroma_location=left
[/FRAME]
[FRAME]
media_type=video
stream_index=0
key_frame=0
pkt_pts=8192
pkt_pts_time=0.800000
pkt_dts=8192
pkt_dts_time=0.800000
best_effort_timestamp=8192
best_effort_timestamp_time=0.800000
pkt_duration=2048
pkt_duration_time=0.200000
pkt_pos=5529
pkt_size=1000
width=512
height=512
pix_fmt=yuv420p
sample_aspect_ratio=1:1
pict_type=P
coded_picture_number=4
display_picture_number=0
interlaced_frame=0
top_field_first=0
repeat_pict=0
color_range=unknown
color_space=unknown
color_primaries=unknown
color_transfer=unknown
chroma_location=left
[/FRAME]
[FRAME]
media_type=video
stream_index=0
key_frame=0
pkt_pts=10240
pkt_pts_time=1.000000
pkt_dts=10240
pkt_dts_time=1.000000
best_effort_timestamp=10240
best_effort_timestamp_time=1.000000
pkt_duration=2048
pkt_duration_time=0.200000
pkt_pos=6529
pkt_size=1301
width=512
height=512
pix_fmt=yuv420p
sample_aspect_ratio=1:1
pict_type=P
coded_picture_number=5
display_picture_number=0
interlaced_frame=0
top_field_first=0
repeat_pict=0
color_range=unknown
color_space=unknown
color_primaries=unknown
color_transfer=unknown
chroma_location=left
[/FRAME]
[FRAME]
media_type=video
stream_index=0
key_frame=0
pkt_pts=12288
pkt_pts_time=1.200000
pkt_dts=12288
pkt_dts_time=1.200000
best_effort_timestamp=12288
best_effort_timestamp_time=1.200000
pkt_duration=2048
pkt_duration_time=0.200000
pkt_pos=7830
pkt_size=1267
width=512
height=512
pix_fmt=yuv420p
sample_aspect_ratio=1:1
pict_type=P
coded_picture_number=6
display_picture_number=0
interlaced_frame=0
top_field_first=0
repeat_pict=0
color_range=unknown
color_space=unknown
color_primaries=unknown
color_transfer=unknown
chroma_location=left
[/FRAME]
[FRAME]
media_type=video
stream_index=0
key_frame=0
pkt_pts=14336
pkt_pts_time=1.400000
pkt_dts=14336
pkt_dts_time=1.400000
best_effort_timestamp=14336
best_effort_timestamp_time=1.400000
pkt_duration=2048
pkt_duration_time=0.200000
pkt_pos=9097
pkt_size=1610
width=512
height=512
pix_fmt=yuv420p
sample_aspect_ratio=1:1
pict_type=P
coded_picture_number=7
display_picture_number=0
interlaced_frame=0
top_field_first=0
repeat_pict=0
color_range=unknown
color_space=unknown
color_primaries=unknown
color_transfer=unknown
chroma_location=left
[/FRAME]
[FRAME]
media_type=video
stream_index=0
key_frame=0
pkt_pts=16384
pkt_pts_time=1.600000
pkt_dts=N/A
pkt_dts_time=N/A
best_effort_timestamp=16384
best_effort_timestamp_time=1.600000
pkt_duration=2048
pkt_duration_time=0.200000
pkt_pos=11960
pkt_size=797
width=512
height=512
pix_fmt=yuv420p
sample_aspect_ratio=1:1
pict_type=B
coded_picture_number=9
display_picture_number=0
interlaced_frame=0
top_field_first=0
repeat_pict=0
color_range=unknown
color_space=unknown
color_primaries=unknown
color_transfer=unknown
chroma_location=left
[/FRAME]
[FRAME]
media_type=video
stream_index=0
key_frame=0
pkt_pts=18432
pkt_pts_time=1.800000
pkt_dts=N/A
pkt_dts_time=N/A
best_effort_timestamp=18432
best_effort_timestamp_time=1.800000
pkt_duration=2048
pkt_duration_time=0.200000
pkt_pos=10707
pkt_size=1253
width=512
height=512
pix_fmt=yuv420p
sample_aspect_ratio=1:1
pict_type=P
coded_picture_number=8
display_picture_number=0
interlaced_frame=0
top_field_first=0
repeat_pict=0
color_range=unknown
color_space=unknown
color_primaries=unknown
color_transfer=unknown
chroma_location=left
[/FRAME]
